<?xml version="1.0" standalone="no"?>
<!DOCTYPE svg PUBLIC "-//W3C//DTD SVG 20010904//EN"
 "http://www.w3.org/TR/2001/REC-SVG-20010904/DTD/svg10.dtd">
<svg version="1.0" xmlns="http://www.w3.org/2000/svg"
 width="225.000000pt" height="225.000000pt" viewBox="0 0 225.000000 225.000000"
 preserveAspectRatio="xMidYMid meet">

<g transform="translate(0.000000,225.000000) scale(0.100000,-0.100000)"
fill="#000000" stroke="none">
<path d="M1051 1659 c-194 -59 -255 -307 -109 -446 101 -97 265 -97 366 0 130
124 98 346 -62 426 -54 26 -144 36 -195 20z"/>
<path d="M564 1641 c-103 -47 -130 -164 -60 -256 31 -40 82 -59 146 -53 83 8
140 74 140 163 0 115 -122 194 -226 146z"/>
<path d="M1583 1650 c-77 -18 -123 -76 -123 -154 0 -96 69 -166 164 -166 79 0
135 45 157 125 31 112 -82 223 -198 195z"/>
<path d="M403 1284 c-121 -60 -179 -190 -112 -252 18 -18 122 -53 194 -66 27
-5 33 -1 65 46 44 66 115 122 210 166 41 20 76 37 78 38 3 2 -35 83 -43 92 -1
1 -26 -10 -56 -25 -73 -38 -156 -38 -224 0 -26 15 -51 27 -54 27 -4 0 -30 -12
-58 -26z"/>
<path d="M1432 1264 c-13 -26 -22 -47 -20 -49 2 -1 34 -16 72 -33 94 -44 160
-94 209 -161 23 -31 42 -57 42 -58 3 -7 141 29 183 47 59 26 78 58 67 119 -9
54 -68 120 -140 155 l-57 28 -51 -28 c-72 -39 -153 -39 -226 -1 -29 15 -54 27
-55 27 -1 0 -12 -21 -24 -46z"/>
<path d="M817 1126 c-162 -67 -257 -182 -257 -310 0 -78 26 -117 100 -150 109
-49 309 -86 459 -86 222 0 475 63 541 134 37 41 41 136 8 208 -41 89 -155 181
-271 218 -35 11 -42 10 -75 -12 -123 -80 -285 -81 -388 -3 -40 31 -44 31 -117
1z"/>
</g>
</svg>
